<svg width="32" height="32" viewBox="0 0 32 32" xmlns="http://www.w3.org/2000/svg">
<path fill-rule="evenodd" fill="#c7caff" clip-rule="evenodd" d="M16 32C24.8366 32 32 24.8366 32 16C32 7.16344 24.8366 0 16 0C7.16344 0 0 7.16344 0 16C0 24.8366 7.16344 32 16 32ZM27.152 18.041C27.2487 18.0839 27.3533 18.1061 27.459 18.106C27.6308 18.1059 27.7973 18.0469 27.9308 17.9387C28.0642 17.8306 28.1565 17.68 28.1922 17.5119C28.2279 17.3439 28.2049 17.1688 28.1269 17.0157C28.049 16.8626 27.9209 16.741 27.764 16.671L22.858 14.474L27.763 12.285C27.9445 12.2037 28.0865 12.0537 28.1577 11.868C28.2289 11.6823 28.2236 11.4759 28.143 11.294C28.0615 11.1127 27.9115 10.971 27.7258 10.9C27.54 10.8289 27.3337 10.8343 27.152 10.915L20.714 13.788C20.582 13.8474 20.4699 13.9436 20.3913 14.0651C20.3127 14.1866 20.2709 14.3283 20.2709 14.473C20.2709 14.6178 20.3127 14.7594 20.3913 14.8809C20.4699 15.0025 20.582 15.0987 20.714 15.158L27.152 18.041ZM18.686 28.565C11.608 28.565 5.42004 23.787 3.64104 16.945C3.59091 16.7526 3.61928 16.5481 3.71989 16.3766C3.8205 16.2051 3.98512 16.0806 4.17754 16.0305C4.36995 15.9804 4.5744 16.0087 4.7459 16.1094C4.9174 16.21 5.04191 16.3746 5.09204 16.567C5.87682 19.5745 7.63712 22.2366 10.0971 24.1364C12.5571 26.0361 15.5779 27.0661 18.686 27.065C18.8849 27.065 19.0757 27.144 19.2164 27.2847C19.357 27.4253 19.436 27.6161 19.436 27.815C19.436 28.0139 19.357 28.2047 19.2164 28.3453C19.0757 28.486 18.8849 28.565 18.686 28.565ZM15.5717 22.1163C15.7124 22.257 15.9031 22.336 16.1021 22.336C16.3008 22.336 16.4914 22.2571 16.632 22.1167C16.7727 21.9763 16.8518 21.7858 16.8521 21.587V7.33002C16.8521 7.1311 16.773 6.94034 16.6324 6.79969C16.4917 6.65903 16.301 6.58002 16.1021 6.58002C15.9031 6.58002 15.7124 6.65903 15.5717 6.79969C15.4311 6.94034 15.3521 7.1311 15.3521 7.33002V21.586C15.3521 21.7849 15.4311 21.9757 15.5717 22.1163Z" />
</svg>
