<svg width="32" height="32" viewBox="0 0 32 32" fill="none" xmlns="http://www.w3.org/2000/svg">
<path fill-rule="evenodd" clip-rule="evenodd" d="M-6.99382e-07 16C-1.08564e-06 24.8366 7.16344 32 16 32C24.8366 32 32 24.8366 32 16C32 7.16344 24.8366 -3.13124e-07 16 -6.99382e-07C7.16344 -1.08564e-06 -3.13124e-07 7.16344 -6.99382e-07 16ZM24.3253 11.3517L26.8462 8.83081C25.8801 7.37219 24.6278 6.11987 23.1693 5.15381L20.6483 7.67468C20.0076 7.31616 19.3212 7.02954 18.6 6.82556L18.6 3.26001C17.7599 3.08948 16.8904 3 16 3C15.1096 3 14.2401 3.08948 13.4 3.26001L13.4 6.82556C12.6554 7.03613 11.9478 7.33496 11.2892 7.70996L8.77216 5.19287C7.31909 6.16662 6.07336 7.42566 5.11505 8.88977L7.63983 11.4145C7.29755 12.0372 7.02283 12.7024 6.8255 13.4L3.26007 13.4C3.08954 14.2401 3 15.1096 3 16C3 16.8904 3.08954 17.7599 3.26007 18.6L6.8255 18.6C7.02948 19.3212 7.31616 20.0076 7.67474 20.6483L5.15381 23.1692C6.11987 24.6278 7.37225 25.8801 8.83081 26.8462L11.3517 24.3253C11.9924 24.6838 12.6788 24.9705 13.4 25.1744L13.4 28.74C14.2401 28.9105 15.1096 29 16 29C16.8904 29 17.7599 28.9105 18.6 28.74L18.6 25.1744C19.2976 24.9772 19.9627 24.7024 20.5854 24.3601L23.1103 26.885C24.5744 25.9266 25.8334 24.6809 26.8071 23.2279L24.29 20.7108C24.665 20.0522 24.9639 19.3446 25.1745 18.6L28.7399 18.6C28.9105 17.7599 29 16.8904 29 16C29 15.1096 28.9105 14.2401 28.7399 13.4L25.1745 13.4C24.9705 12.6788 24.6838 11.9924 24.3253 11.3517ZM12 16C12 17.4806 12.8044 18.7732 14 19.4648L14 22L18 22L18 19.4648C19.1956 18.7732 20 17.4806 20 16C20 13.7909 18.2092 12 16 12C13.7908 12 12 13.7909 12 16Z" fill="#c7caff"/>
</svg>
