<svg width="375" height="168" viewBox="0 0 375 168" fill="none" xmlns="http://www.w3.org/2000/svg">
<path fill-rule="evenodd" clip-rule="evenodd" d="M438 33.6013V119.797H-462V11.3272L-434.812 0L-241.688 40.235L-114.188 0.302518L140.812 26.6216L217.062 0.302518L438 33.6013Z" fill="#211A29"/>
<path fill-rule="evenodd" clip-rule="evenodd" d="M438 18.3897V119.797H-462V51.5231L-242.625 0.912162L-155.75 51.3851L-110.75 26.4527L90.5 0.608108L188.625 51.0811L248.938 25.8446L280.812 42.8716L409.562 0L438 18.3897Z" fill="#2F2439"/>
<path d="M188.625 51.0811L230.812 33.4459L90.5 0.608093L188.625 51.0811Z" fill="#1A1823"/>
<path d="M280.812 42.8716L304.562 34.9662L248.938 25.8446L280.812 42.8716Z" fill="#1A1823"/>
<rect y="114" width="375" height="54" fill="#2F2439"/>
</svg>
